<?xml version="1.0" encoding="utf-8"?>
<!-- Generator: Adobe Illustrator 26.0.3, SVG Export Plug-In . SVG Version: 6.00 Build 0)  -->
<svg version="1.1" id="Layer_1" xmlns="http://www.w3.org/2000/svg" xmlns:xlink="http://www.w3.org/1999/xlink" x="0px" y="0px"
	 viewBox="0 0 80 80" style="enable-background:new 0 0 80 80;" xml:space="preserve">
<style type="text/css">
	.st0{fill:#FFFFFF;}
</style>
<g>
	<g>
		<path class="st0" d="M62.24,30.87c0.62,4.06-1.52,7.74-1.52,7.74c-5.24,9.53-17.27,7.57-17.27,7.57l-2.12-5.14
			c4.98,0.07,8.91-0.84,8.91-0.84c5.97-2.09,5.51-8.03,5.51-8.03c-0.39-7.32-7.6-7.44-7.6-7.44H33.51v39.9h-6.6V18.83h21.65
			C59.51,19.96,61.62,26.8,62.24,30.87z"/>
		<path class="st0" d="M39.99,1.64c-21.19,0-38.36,17.17-38.36,38.36s17.17,38.37,38.36,38.37s38.37-17.18,38.37-38.37
			S61.18,1.64,39.99,1.64z M39.99,72.71c-18.07,0-32.7-14.65-32.7-32.72c0-18.05,14.64-32.7,32.7-32.7s32.72,14.65,32.72,32.7
			C72.71,58.06,58.06,72.71,39.99,72.71z"/>
	</g>
	<path class="st0" d="M60.72,38.61c-5.24,9.53-17.27,7.57-17.27,7.57l-2.12-5.14c4.98,0.07,8.91-0.84,8.91-0.84
		c5.97-2.09,5.51-8.03,5.51-8.03c-0.39-7.32-7.6-7.44-7.6-7.44H33.51v39.9h-6.6V18.83h21.65c10.94,1.13,13.06,7.97,13.68,12.03
		C62.85,34.93,60.72,38.61,60.72,38.61z"/>
</g>
</svg>
